<?xml version="1.0" standalone="no"?>
<!DOCTYPE svg PUBLIC "-//W3C//DTD SVG 20010904//EN"
 "http://www.w3.org/TR/2001/REC-SVG-20010904/DTD/svg10.dtd">
<svg version="1.0" xmlns="http://www.w3.org/2000/svg"
 width="300.000000pt" height="180.000000pt" viewBox="0 0 300.000000 180.000000"
 preserveAspectRatio="xMidYMid meet">
<metadata>
Created by potrace 1.10, written by Peter Selinger 2001-2011
</metadata>
<g transform="translate(0.000000,180.000000) scale(0.100000,-0.100000)"
fill="#000000" stroke="none">
<path d="M1178 1560 c-72 -38 -117 -122 -162 -299 -26 -104 -35 -126 -51 -129
-38 -6 -63 -24 -83 -61 -30 -53 -79 -190 -107 -298 -27 -103 -59 -173 -78
-173 -20 0 -65 -51 -72 -82 -7 -29 -20 -37 -27 -16 -2 6 -12 12 -22 14 -12 2
-16 -2 -12 -12 4 -10 -2 -14 -19 -14 -18 0 -25 -5 -25 -20 0 -10 -6 -23 -14
-27 -8 -4 -16 -19 -18 -33 -2 -20 -10 -26 -37 -30 -34 -5 -35 -7 -52 -73 -9
-37 -13 -69 -9 -72 5 -3 89 -1 187 5 98 5 265 10 371 10 105 0 192 4 192 9 0
4 -23 38 -50 75 -40 52 -47 66 -33 66 10 1 131 5 270 10 260 9 277 8 385 -33
72 -26 80 -22 -135 -72 -110 -26 -156 -40 -149 -47 6 -6 89 -28 184 -49 95
-21 205 -48 244 -60 l71 -21 241 73 c133 40 246 75 251 78 9 6 21 63 94 441
14 69 22 128 18 131 -3 4 -116 2 -251 -5 l-245 -11 -12 -25 c-6 -14 -21 -99
-33 -190 -12 -91 -25 -172 -28 -181 -6 -15 -13 -14 -60 8 -41 20 -63 40 -98
89 -25 35 -54 66 -65 69 -26 8 -36 29 -58 124 -11 44 -23 87 -29 97 -5 9 -7
25 -4 36 2 10 -2 26 -11 36 -8 9 -20 44 -27 76 -12 60 -44 106 -75 106 -8 0
-15 3 -15 8 -2 70 -22 302 -31 342 -17 80 -66 128 -144 140 -86 14 -125 12
-167 -10z m198 -11 c75 -23 102 -88 114 -268 5 -75 12 -151 16 -168 6 -32 6
-33 -27 -33 -47 -1 -69 -20 -69 -61 0 -19 -4 -40 -9 -48 -18 -29 -31 55 -29
189 2 121 0 141 -22 195 -13 33 -38 74 -55 92 l-32 32 41 27 c55 37 28 43 -32
7 -26 -15 -60 -35 -76 -43 -46 -23 -87 -70 -114 -128 -20 -44 -23 -65 -20
-124 3 -70 3 -71 -25 -81 -16 -5 -30 -7 -33 -4 -8 8 56 247 78 291 55 109 117
151 208 141 30 -3 69 -11 86 -16z m-36 -213 c18 -54 22 -86 20 -150 -5 -133
-1 -188 15 -213 15 -22 15 -26 -10 -55 -30 -36 -27 -52 21 -121 l34 -47 -26
-10 c-36 -14 -79 -12 -121 5 -60 25 -62 29 -42 87 26 74 24 86 -14 102 -33 13
-68 58 -81 103 -7 20 -5 21 23 10 37 -14 97 3 140 39 l31 26 -6 -45 c-7 -48 3
-137 14 -137 4 0 7 59 7 130 0 90 -3 122 -9 103 -17 -54 -67 -94 -133 -106
-48 -9 -79 22 -99 102 -9 36 -14 82 -11 103 3 21 1 38 -3 38 -16 0 11 58 47
99 19 23 51 50 72 60 l36 19 36 -37 c24 -24 43 -59 59 -105z m-217 -299 c8
-48 50 -106 87 -119 l28 -9 -15 -52 c-8 -28 -33 -92 -55 -142 -21 -49 -58
-136 -81 -192 -45 -110 -48 -113 -136 -113 -64 0 -65 4 -42 131 24 138 38 315
24 306 -5 -4 -13 -57 -17 -118 -4 -62 -13 -142 -21 -178 -8 -36 -16 -79 -17
-96 -2 -22 -9 -31 -25 -33 -16 -2 -23 3 -27 26 -17 73 -103 130 -155 103 -27
-15 -27 -7 1 19 35 32 64 25 124 -31 30 -29 54 -47 54 -42 0 13 -90 98 -110
105 -12 4 -12 8 -4 19 6 8 21 46 33 84 89 286 126 378 163 402 7 4 47 10 88
13 73 5 75 4 86 -20 6 -14 14 -42 17 -63z m449 2 c9 -11 20 -41 24 -67 3 -26
12 -56 19 -67 7 -11 15 -36 17 -55 3 -19 10 -48 17 -65 6 -16 20 -65 32 -107
13 -46 27 -78 35 -78 7 0 26 -11 41 -25 l28 -24 -32 -1 c-44 0 -100 -50 -109
-96 -7 -37 -7 -37 -42 -27 -21 5 -23 10 -20 52 3 25 8 55 12 66 7 20 7 20 -8
1 -18 -23 -17 -23 -43 29 -14 28 -22 71 -27 144 -3 57 -11 111 -17 120 -7 11
-8 -1 -3 -44 5 -33 8 -129 9 -212 l0 -153 -34 0 c-37 0 -37 -7 -1 92 17 50 19
64 9 110 -12 57 -41 117 -88 188 -17 25 -31 51 -31 58 0 7 13 30 29 50 18 23
32 55 36 84 7 45 9 47 44 51 53 6 84 -1 103 -24z m945 -221 c-3 -13 -27 -135
-53 -273 -25 -137 -47 -251 -48 -252 -4 -6 -469 -143 -473 -140 -6 7 86 650
94 658 8 7 266 24 417 27 66 2 68 1 63 -20z m-1269 -77 c57 -29 94 -34 140
-18 l42 14 20 -54 c27 -72 25 -120 -6 -192 l-26 -59 -81 -7 c-45 -3 -125 -5
-177 -3 l-96 3 70 168 c38 92 71 167 73 167 2 0 20 -8 41 -19z m316 -268 c6
-41 5 -43 -19 -43 -22 0 -25 4 -25 33 0 17 -3 57 -6 87 l-5 55 24 -45 c13 -25
27 -64 31 -87z m-829 63 c52 -22 101 -116 60 -116 -8 0 -31 -11 -51 -25 -36
-25 -64 -32 -64 -17 1 4 7 18 15 32 8 14 14 34 15 45 0 11 -11 -4 -25 -33 -14
-30 -22 -59 -18 -65 4 -6 0 -8 -8 -5 -8 3 -37 13 -66 23 -34 12 -53 25 -57 39
-3 11 -8 17 -12 13 -18 -17 27 -55 85 -71 34 -9 61 -19 61 -22 0 -2 -20 -4
-45 -4 -36 0 -51 6 -81 33 -29 25 -35 27 -26 10 19 -35 53 -53 102 -54 l45 -1
-35 -9 c-46 -11 -71 -5 -103 27 -29 28 -35 89 -10 98 7 3 13 15 13 26 0 14 7
20 23 20 20 0 23 -4 19 -29 -4 -26 0 -32 39 -50 52 -25 52 -25 44 -2 -3 10 -1
30 4 45 7 17 7 26 1 26 -6 0 -10 -6 -10 -14 0 -18 -27 -29 -36 -14 -4 7 -3 8
4 4 7 -4 12 -3 12 3 0 5 -5 13 -11 17 -16 9 1 22 41 29 29 5 39 2 54 -14 17
-18 18 -26 8 -59 -10 -33 -10 -35 3 -18 38 50 2 114 -57 102 l-33 -6 28 25
c33 29 29 29 72 11z m1074 -35 c17 -21 28 -41 24 -45 -3 -3 0 -6 8 -6 7 0 37
-10 66 -22 40 -16 53 -27 53 -42 -1 -21 -1 -21 -17 -1 -16 20 -16 20 -8 0 4
-11 10 -33 12 -50 l5 -30 -28 33 c-18 20 -43 36 -66 41 -37 9 -37 9 -31 -20 3
-18 1 -29 -6 -29 -20 0 -51 40 -52 68 -2 23 -2 24 -6 5 -5 -27 -10 -28 -63 -7
-34 14 -40 20 -40 46 0 21 10 40 34 64 46 46 76 45 115 -5z m-1205 -42 c-3 -5
0 -18 6 -30 11 -19 10 -20 -9 -9 -16 8 -20 19 -18 45 2 30 4 33 14 19 7 -9 10
-21 7 -25z m345 -64 c47 -8 87 -18 91 -22 78 -98 81 -103 62 -103 -11 0 -57 7
-103 16 -74 14 -175 15 -218 3 -10 -3 -17 9 -23 41 -15 80 27 94 191 65z
m-202 -77 l8 -53 -173 -9 c-95 -5 -175 -7 -177 -4 -2 2 2 26 9 53 11 47 14 50
47 53 29 2 37 -2 51 -27 20 -36 66 -48 127 -31 33 9 46 8 57 -1 23 -19 27 -4
8 26 -15 23 -15 28 -3 36 28 17 38 8 46 -43z m1171 2 c20 -29 22 -42 17 -90
-11 -89 -11 -89 -49 -78 -19 6 -32 16 -30 22 3 7 -23 19 -66 31 -38 10 -67 22
-62 25 4 4 42 17 85 30 68 21 106 40 79 40 -8 0 -169 -53 -202 -66 -9 -4 19
-18 70 -35 47 -16 74 -26 60 -23 -76 15 -337 76 -350 80 -8 4 59 24 149 45
150 36 165 37 176 22 16 -21 45 -10 45 17 0 35 49 22 78 -20z m-948 -44 l65
-14 -135 0 c-122 0 -132 1 -105 13 38 18 92 18 175 1z"/>
<path d="M1352 1484 c35 -72 41 -98 45 -184 5 -95 26 -190 44 -190 5 0 2 17
-7 38 -9 22 -19 84 -23 152 -7 111 -23 168 -52 186 -6 4 -10 3 -7 -2z"/>
<path d="M1148 1328 c24 -26 29 -67 11 -100 -13 -23 2 -38 36 -37 19 0 19 1
-1 10 -19 10 -20 14 -10 50 9 33 7 43 -10 66 -11 15 -27 29 -35 31 -8 3 -5 -5
9 -20z"/>
<path d="M496 632 c-8 -13 51 -105 68 -108 19 -3 19 1 5 27 -5 11 -15 16 -21
13 -7 -4 -8 -3 -4 4 4 7 -1 25 -11 42 -18 30 -28 36 -37 22z"/>
</g>
</svg>
