<svg xmlns="http://www.w3.org/2000/svg" version="1.1" xmlns:xlink="http://www.w3.org/1999/xlink" xmlns:svgjs="http://svgjs.dev/svgjs" width="2000" height="515" viewBox="0 0 2000 515"><g transform="matrix(1,0,0,1,-1.2121212121212466,-0.379338440692095)"><svg viewBox="0 0 396 102" data-background-color="#ffffff" preserveAspectRatio="xMidYMid meet" height="515" width="2000" xmlns="http://www.w3.org/2000/svg" xmlns:xlink="http://www.w3.org/1999/xlink"><g id="tight-bounds" transform="matrix(1,0,0,1,0.2400000000000091,0.0751311086419264)"><svg viewBox="0 0 395.52 101.84973778271613" height="101.84973778271613" width="395.52"><g><svg viewBox="0 0 665.3860043336757 171.3425112906404" height="101.84973778271613" width="395.52"><g><rect width="11.180784727685674" height="148.77786798029555" x="424.7890699677635" y="11.282321655172424" fill="#000000" opacity="1" stroke-width="0" stroke="transparent" fill-opacity="1" class="rect-yte-0" data-fill-palette-color="primary" rx="1%" id="yte-0" data-palette-color="#000000"></rect></g><g transform="matrix(1,0,0,1,0,23.68047732019705)"><svg viewBox="0 0 395.52 123.9815566502463" height="123.9815566502463" width="395.52"><g id="textblocktransform"><svg viewBox="0 0 395.52 123.9815566502463" height="123.9815566502463" width="395.52" id="textblock"><g><svg viewBox="0 0 395.52 123.9815566502463" height="123.9815566502463" width="395.52"><g transform="matrix(1,0,0,1,0,0)"><svg width="395.52" viewBox="4.1 -36.23 148.67000000000002 46.61" height="123.9815566502463" data-palette-color="#000000"><path d="M30.71-9.69L30.71-9.69Q30.71-5.1 27.37-2.55 24.02 0 18.07 0L18.07 0 4.1 0 4.1-34.4 16.6-34.4Q22.66-34.4 25.68-32.31 28.71-30.22 28.71-26.05L28.71-26.05Q28.71-23 27-20.92 25.29-18.85 22.17-18.14L22.17-18.14Q26.27-17.65 28.49-15.39 30.71-13.13 30.71-9.69ZM24.02-25.49L24.02-25.49Q24.02-28.27 22.12-29.47 20.21-30.66 16.6-30.66L16.6-30.66 8.76-30.66 8.76-19.78 16.6-19.78Q20.34-19.78 22.18-21.18 24.02-22.58 24.02-25.49ZM26-10.06L26-10.06Q26-16.14 17.46-16.14L17.46-16.14 8.76-16.14 8.76-3.74 17.82-3.74Q22.09-3.74 24.05-5.32 26-6.91 26-10.06ZM36.72-36.23L41.11-36.23 41.11 0 36.72 0 36.72-36.23ZM70.16-13.23L70.16-13.23Q70.16-6.3 67.11-2.91 64.06 0.49 58.25 0.49L58.25 0.49Q52.46 0.49 49.51-3.04 46.55-6.57 46.55-13.23L46.55-13.23Q46.55-20.07 49.52-23.49 52.49-26.9 58.39-26.9L58.39-26.9Q64.45-26.9 67.3-23.57 70.16-20.24 70.16-13.23ZM65.55-13.23L65.55-13.23Q65.55-18.7 63.92-21.18 62.3-23.66 58.47-23.66L58.47-23.66Q54.61-23.66 52.89-21.13 51.17-18.6 51.17-13.23L51.17-13.23Q51.17-8.01 52.86-5.38 54.56-2.76 58.2-2.76L58.2-2.76Q62.15-2.76 63.85-5.3 65.55-7.84 65.55-13.23ZM85.64 10.38L85.64 10.38Q81.32 10.38 78.75 8.68 76.19 6.98 75.46 3.86L75.46 3.86 79.88 3.22Q80.31 5.05 81.82 6.04 83.32 7.03 85.76 7.03L85.76 7.03Q89.03 7.03 90.68 5.1 92.33 3.17 92.33-0.66L92.33-0.66 92.33-4.91 92.28-4.91Q91.03-2.37 88.86-1.09 86.69 0.2 83.78 0.2L83.78 0.2Q78.92 0.2 76.64-3.03 74.36-6.25 74.36-13.16L74.36-13.16Q74.36-20.17 76.81-23.5 79.26-26.83 84.27-26.83L84.27-26.83Q87.08-26.83 89.14-25.55 91.2-24.27 92.33-21.9L92.33-21.9 92.38-21.9Q92.38-22.39 92.42-23.43 92.47-24.46 92.55-25.39 92.62-26.32 92.67-26.42L92.67-26.42 96.84-26.42Q96.7-25.1 96.7-20.95L96.7-20.95 96.7-0.76Q96.7 4.81 93.94 7.59 91.18 10.38 85.64 10.38ZM92.33-13.21L92.33-13.21Q92.33-18.02 90.36-20.79 88.4-23.56 85.34-23.56L85.34-23.56Q81.97-23.56 80.44-21.12 78.9-18.68 78.9-13.21L78.9-13.21Q78.9-7.79 80.34-5.42 81.78-3.05 85.27-3.05L85.27-3.05Q88.4-3.05 90.36-5.77 92.33-8.5 92.33-13.21ZM113.44 10.38L113.44 10.38Q109.12 10.38 106.56 8.68 103.99 6.98 103.26 3.86L103.26 3.86 107.68 3.22Q108.12 5.05 109.62 6.04 111.12 7.03 113.56 7.03L113.56 7.03Q116.84 7.03 118.48 5.1 120.13 3.17 120.13-0.66L120.13-0.66 120.13-4.91 120.08-4.91Q118.84-2.37 116.66-1.09 114.49 0.2 111.59 0.2L111.59 0.2Q106.73 0.2 104.45-3.03 102.16-6.25 102.16-13.16L102.16-13.16Q102.16-20.17 104.62-23.5 107.07-26.83 112.07-26.83L112.07-26.83Q114.88-26.83 116.95-25.55 119.01-24.27 120.13-21.9L120.13-21.9 120.18-21.9Q120.18-22.39 120.23-23.43 120.28-24.46 120.35-25.39 120.42-26.32 120.47-26.42L120.47-26.42 124.65-26.42Q124.5-25.1 124.5-20.95L124.5-20.95 124.5-0.76Q124.5 4.81 121.74 7.59 118.98 10.38 113.44 10.38ZM120.13-13.21L120.13-13.21Q120.13-18.02 118.17-20.79 116.2-23.56 113.15-23.56L113.15-23.56Q109.78-23.56 108.24-21.12 106.7-18.68 106.7-13.21L106.7-13.21Q106.7-7.79 108.14-5.42 109.58-3.05 113.08-3.05L113.08-3.05Q116.2-3.05 118.17-5.77 120.13-8.5 120.13-13.21ZM132.53 10.38L132.53 10.38Q130.77 10.38 129.5 10.11L129.5 10.11 129.5 6.81Q130.43 6.96 131.55 6.96L131.55 6.96Q133.61 6.96 135.35 5.43 137.1 3.91 138.46-0.12L138.46-0.12 127.99-26.42 132.68-26.42 138.24-11.82Q138.85-10.25 139.55-8.28 140.25-6.3 140.64-4.79L140.64-4.79Q141.25-6.52 141.87-8.23 142.49-9.94 143.08-11.65L143.08-11.65 148.13-26.42 152.77-26.42 142.61 0Q141.78 2.1 141.03 3.67 140.27 5.25 139.56 6.27L139.56 6.27Q138.15 8.35 136.43 9.36 134.7 10.38 132.53 10.38Z" opacity="1" transform="matrix(1,0,0,1,0,0)" fill="#000000" class="wordmark-text-0" data-fill-palette-color="primary" id="text-0"></path></svg></g></svg></g></svg></g></svg></g><g transform="matrix(1,0,0,1,465.2389246632127,0)"><svg viewBox="0 0 200.14707967046294 171.3425112906404" height="171.3425112906404" width="200.14707967046294"><g><svg xmlns="http://www.w3.org/2000/svg" xmlns:xlink="http://www.w3.org/1999/xlink" version="1.1" x="0" y="0" viewBox="14.406 18.868194512701614 73.68655363762393 63.08180548729839" enable-background="new 0 0 100 100" xml:space="preserve" height="171.3425112906404" width="200.14707967046294" class="icon-icon-0" data-fill-palette-color="accent" id="icon-0"><path fill="#000000" d="M84.896 19.566C81.976 18.016 78.346 19.136 76.796 22.056L76.516 22.586 76.126 23.316 74.656 26.106 74.466 26.466 67.606 39.516H67.596L65.916 42.716 60.536 52.926 58.336 57.106 55.426 62.636 54.036 74.206H14.406V77.206H54.836C54.956 77.206 55.066 77.186 55.186 77.166 55.426 77.146 55.666 77.066 55.856 76.896L65.877 68.166C66.007 68.056 66.106 67.916 66.177 67.776L72.917 55.046 75.437 50.286 76.847 47.606 78.948 43.646 80.378 40.946H80.368L81.107 39.566 84.967 32.256 86.557 29.246 87.278 27.896 87.397 27.666C88.947 24.746 87.817 21.106 84.896 19.566M59.567 70.416L57.106 69.116 57.716 64.056C58.016 64.106 58.326 64.176 58.646 64.266 58.657 64.266 58.667 64.276 58.686 64.276 59.306 64.446 59.997 64.726 60.777 65.146 61.577 65.566 62.197 65.976 62.686 66.396 62.697 66.406 62.707 66.416 62.716 66.416 62.966 66.626 63.196 66.846 63.406 67.076zM80.367 35.726L78.047 40.116 74.477 46.866 73.057 49.546 64.857 65.056C64.668 64.876 64.477 64.706 64.267 64.536 63.637 63.996 62.877 63.486 61.927 62.986S60.127 62.136 59.327 61.926C59.077 61.846 58.827 61.786 58.577 61.726L58.927 61.066 63.677 52.086 66.437 46.876 67.322 45.196 71.011 38.221 71.537 37.226 71.896 36.546 74.407 31.816C77.817 32.186 79.837 33.946 80.757 34.996zM81.247 34.056C80.167 32.916 78.127 31.316 74.907 30.866L75.337 30.056C78.777 30.456 80.777 32.286 81.647 33.316zM85.237 26.526L84.926 27.126H84.916L84.605 27.716 84.326 28.246 84.176 28.526 83.416 29.956 83.096 30.566 82.367 31.946 82.146 32.366C81.096 31.236 79.067 29.596 75.836 29.106L75.876 29.026H75.866L75.966 28.826 77.156 26.576 77.876 25.206 78.596 23.836 78.786 23.476 78.806 23.486 78.956 23.206C79.876 21.466 82.026 20.806 83.756 21.726A3.55 3.55 0 0 1 85.237 26.526" data-fill-palette-color="accent"></path><path fill="#000000" d="M49.43 81.67C49.33 81.79 49.22 81.89 49.1 81.95z" data-fill-palette-color="accent"></path></svg></g></svg></g></svg></g><defs></defs></svg><rect width="395.52" height="101.84973778271613" fill="none" stroke="none" visibility="hidden"></rect></g></svg></g></svg>